<svg xmlns="http://www.w3.org/2000/svg"
shape-rendering="geometricPrecision"
width="4000" height="4000" viewBox="0 0 1024 1024">
  <metadata>null</metadata>

<path d="
M 55.099 610.675
C 61.437 610.996 68.377 611.131 74.699 610.61
C 75.79 613.029 76.294 615.686 77.101 618.207
C 78.82 623.576 80.462 629.009 81.94 634.446
C 86.129 649.866 91.083 665.11 95.47 680.48
C 97.302 686.9 99.221 693.292 101.103 699.699
C 101.758 701.929 102.091 705.199 103.358 707.122
C 105.766 700.325 107.488 693.001 109.29 686.009
C 113.574 669.384 118.217 652.608 123.369 636.231
C 125.284 630.142 126.87 623.921 128.621 617.781
C 129.212 615.706 129.449 612.407 130.729 610.673
C 136.585 610.795 142.974 609.823 148.767 610.656
C 150.26 618.058 153.057 625.371 155.127 632.638
C 159.528 648.094 164.05 663.538 168.196 679.066
C 169.992 685.796 172.033 692.466 173.785 699.208
C 174.25 700.996 174.79 702.797 175.151 704.608
C 175.262 705.163 175.32 706.565 175.671 706.946
C 176.177 706.275 176.205 705.34 176.446 704.552
C 177.07 702.512 177.615 700.44 178.22 698.391
C 180.09 692.056 182.101 685.752 184.069 679.447
C 188.833 664.188 193.583 648.92 198.326 633.653
C 200.677 626.084 202.284 617.902 205.384 610.617
C 211.855 610.648 218.354 610.425 224.822 610.671
C 223.588 616.563 221.116 622.519 219.165 628.216
C 216.224 636.806 213.465 645.463 210.595 654.079
C 201.873 680.26 193.736 706.636 184.798 732.737
C 180.368 733.651 175.02 732.725 170.497 732.739
C 169.109 732.743 166.454 733.303 165.264 732.613
C 159.829 712.345 153.721 692.194 147.862 672.042
C 146.064 665.86 144.232 659.676 142.559 653.46
C 141.698 650.259 141.106 646.108 139.495 643.226
C 134.316 663.059 128.085 682.705 122.248 702.363
C 119.956 710.083 117.954 717.921 115.408 725.561
C 114.625 727.909 114.195 730.417 113.24 732.703
C 106.702 733.462 99.758 732.625 93.178 732.701
C 89.558 721.602 86.413 710.326 82.969 699.167
C 78.255 683.894 73.308 668.684 68.733 653.366
C 64.48 639.132 60.334 624.573 55.099 610.675 Z"
opacity="1" fill="rgb(13,59,92)" fill-rule="evenodd" />
<path d="
M 201.894 789.699
C 203.136 789.759 204.959 789.299 206.089 789.854
C 207.758 792.708 209.478 795.544 211.174 798.383
C 211.755 799.355 212.448 801.237 213.429 801.824
C 214.234 801.197 214.782 799.803 215.307 798.927
C 216.633 796.715 217.92 794.48 219.222 792.254
C 220.368 790.296 222.046 788.592 224.505 789.846
C 223.452 794.133 219.558 798.195 217.241 801.906
C 216.599 802.932 215.571 804.024 215.216 805.193
C 214.941 806.101 215.147 807.242 215.151 808.181
C 215.161 810.345 215.015 812.605 215.213 814.756
C 213.988 814.707 212.706 814.666 211.485 814.754
C 211.171 814.113 211.39 812.912 211.387 812.197
C 211.38 810.138 211.928 807.134 211.214 805.191
C 210.62 803.576 209.319 801.983 208.43 800.506
C 206.257 796.897 203.984 793.345 201.894 789.699 Z"
opacity="1" fill="rgb(26,68,106)" fill-rule="evenodd" />
<path d="
M 229.466 799.089
C 233.113 785.087 254.761 786.594 256.564 800.863
C 256.774 802.524 256.754 804.169 256.32 805.795
C 252.766 819.111 231.056 818.673 229.195 804.483
C 228.963 802.71 229.014 800.822 229.466 799.089 Z
M 232.965 802.12
C 232.916 803.505 233.133 804.911 233.65 806.204
C 237.405 815.591 252.55 813.558 252.893 803.103
C 252.952 801.315 252.681 799.467 251.891 797.849
C 247.409 788.665 233.322 792.057 232.965 802.12 Z"
opacity="1" fill="rgb(20,60,97)" fill-rule="evenodd" />
<path d="
M 230.794 732.741
C 235.362 720.587 240.611 708.575 245.79 696.664
C 254.504 676.621 262.836 656.343 270.968 636.057
C 274.363 627.585 278.274 619.266 281.343 610.67
C 287.102 610.542 292.94 610.913 298.684 610.6
C 302.242 619.936 306.639 628.968 310.402 638.225
C 318.369 657.828 326.468 677.373 334.412 696.986
C 337.721 705.152 341.02 713.345 344.467 721.455
C 345.517 723.927 346.48 726.436 347.577 728.888
C 348.058 729.963 349.125 731.599 349.276 732.743
C 344.703 732.558 340.074 732.773 335.497 732.795
C 333.994 732.803 331.041 733.328 329.743 732.65
C 327.991 727.097 325.303 721.715 323.219 716.268
C 321.562 711.939 320.254 706.849 317.94 702.843
C 316.894 702.284 314.707 702.652 313.5 702.644
C 309.833 702.62 306.167 702.628 302.5 702.629
C 293.501 702.631 284.501 702.619 275.502 702.621
C 271.029 702.622 266.369 702.241 261.919 702.675
C 258.015 712.67 254.268 722.97 249.651 732.658
C 248.342 733.293 245.469 732.751 243.998 732.747
C 239.6 732.733 235.186 732.604 230.794 732.741 Z
M 269.414 685.104
C 269.33 685.313 269.245 685.523 269.161 685.732
C 274.915 685.478 280.741 685.749 286.504 685.752
C 294.765 685.756 303.042 685.58 311.3 685.714
C 308.964 682.585 307.858 677.73 306.389 674.124
C 303.147 666.167 299.867 658.225 296.601 650.277
C 295.128 646.693 293.547 643.156 292.15 639.542
C 291.689 638.35 291.161 637.194 290.687 636.013
C 290.605 635.81 289.914 634.039 289.829 634.105
C 289.64 634.253 288.828 637.142 288.599 637.701
C 287.261 640.969 286.035 644.283 284.676 647.544
C 279.484 659.997 274.916 672.793 269.414 685.104 Z"
opacity="1" fill="rgb(13,60,93)" fill-rule="evenodd" />
<path d="
M 264.896 789.865
C 266.033 789.778 267.115 789.695 268.259 789.683
C 268.886 793.979 268.314 798.656 268.354 802.997
C 268.372 804.936 268.004 807.284 269.009 809.04
C 271.302 813.044 278.898 813.63 281.146 809.203
C 282.201 807.124 281.974 804.527 281.96 802.27
C 281.936 798.161 281.983 794.045 281.899 789.938
C 282.834 789.435 284.636 789.417 285.626 789.747
C 285.806 793.79 285.66 797.85 285.679 801.899
C 285.693 804.9 285.922 807.958 284.452 810.693
C 281.073 816.98 269.897 817.296 266.176 811.234
C 264.751 808.912 264.825 806.056 264.79 803.427
C 264.73 798.995 264.323 794.259 264.896 789.865 Z"
opacity="1" fill="rgb(22,63,99)" fill-rule="evenodd" />
<path d="
M 295.269 789.789
C 298.281 789.594 301.299 789.68 304.319 789.698
C 306.484 789.711 308.863 789.635 310.775 790.793
C 316.502 794.264 314.656 802.038 309.278 804.549
C 309.056 805.282 310.037 806.47 310.411 807.178
C 311.45 809.143 314.061 812.528 313.99 814.783
C 312.718 814.79 311.378 814.686 310.117 814.796
C 309.433 814.168 309.037 812.719 308.595 811.867
C 307.501 809.759 306.451 807.627 305.265 805.578
C 303.56 804.914 300.776 805.399 298.94 805.502
C 298.892 808.51 298.514 811.616 298.789 814.622
C 297.636 814.746 296.337 814.849 295.19 814.658
C 295.377 806.381 294.845 798.057 295.269 789.789 Z
M 298.896 793.557
C 298.659 796.287 298.565 799.293 298.857 802.021
C 301.575 801.983 305.888 802.764 308.319 801.311
C 311.448 799.443 311.06 794.851 307.918 793.209
C 305.577 791.985 301.663 792.872 299.137 792.969
C 299.057 793.165 298.977 793.361 298.896 793.557 Z"
opacity="1" fill="rgb(27,66,102)" fill-rule="evenodd" />
<path d="
M 327.181 370.78
C 329.713 369.727 332.655 369.606 335.35 369.22
C 341.954 368.274 348.893 367.982 355.392 366.5
C 356.043 365.336 355.656 362.475 355.733 361.11
C 355.966 356.944 356.335 352.783 357.036 348.666
C 359.203 335.952 362.632 323.331 367.957 311.551
C 385.294 273.199 417.781 240.642 458.447 227.707
C 467.218 224.917 476.094 222.5 485.239 221.273
C 488.988 220.769 492.74 220.299 496.516 220.053
C 498.778 219.905 501.226 219.966 503.431 219.414
C 503.867 219.011 503.774 218.05 503.816 217.485
C 503.953 215.666 504.106 213.849 504.235 212.029
C 504.569 207.329 505.024 202.644 505.559 197.964
C 505.8 195.858 505.757 193.705 506.529 191.702
C 507.479 191.285 508.45 191.407 509.459 191.516
C 510.844 193.555 510.623 197.664 510.864 200.067
C 511.232 203.748 511.817 207.408 512.151 211.092
C 512.398 213.812 512.318 216.861 513.054 219.494
C 569.692 220.131 624.378 257.13 647.375 308.644
C 653.235 321.77 657.414 335.499 659.522 349.731
C 660.35 355.323 660.477 360.883 660.948 366.496
C 667.364 367.287 673.797 367.889 680.197 368.81
C 682.907 369.2 685.918 369.221 688.498 370.185
C 688.974 370.949 689.089 372.333 688.655 373.147
C 685.2 374.455 681.004 374.449 677.349 374.762
C 671.836 375.233 666.33 375.865 660.817 376.335
C 660.013 391.324 657.77 405.951 652.916 420.205
C 638.317 463.075 603.866 499.285 561.291 515.123
C 551.561 518.743 541.539 521.651 531.253 523.203
C 525.287 524.104 519.337 524.399 513.337 524.902
C 511.652 531.488 512.019 538.814 511.034 545.552
C 510.704 547.811 510.933 550.997 509.682 552.976
C 508.844 553.142 507.905 553.017 507.057 552.912
C 505.614 551.435 505.796 547.07 505.616 545.083
C 505.219 540.718 504.703 536.37 504.347 532.001
C 504.169 529.816 504.395 526.898 503.705 524.839
C 485.031 523.779 466.941 520.155 449.655 512.819
C 408.919 495.529 376.944 460.724 362.601 418.928
C 357.933 405.324 355.715 391.024 355.102 376.694
C 353.077 375.981 350.644 376.321 348.529 376.087
C 341.691 375.329 333.934 375.767 327.344 373.634
C 327.136 372.698 327.157 371.735 327.181 370.78 Z
M 363.05 377.63
C 363.472 382.742 363.723 387.837 364.472 392.92
C 366.166 404.419 369.528 415.767 373.921 426.514
C 388.58 462.374 418.898 492.316 455.004 506.415
C 466.675 510.973 478.986 514.711 491.483 516.141
C 494.407 516.475 497.368 516.811 500.312 516.869
C 501.193 516.886 502.531 517.144 503.346 516.808
C 503.336 512.7 502.848 508.584 502.612 504.482
C 502.536 503.172 502.726 500.553 502.009 499.518
C 497.708 498.474 493.051 498.543 488.676 497.752
C 478.403 495.895 468.23 493.031 458.662 488.818
C 426.926 474.846 401.193 448.567 388.762 416.054
C 384.038 403.7 381.503 390.828 380.63 377.654
C 377.103 376.824 373.025 377.14 369.408 376.943
C 367.399 376.834 364.975 376.366 363.044 376.983
C 363.046 377.199 363.048 377.415 363.05 377.63 Z
M 363.449 362.612
C 363.319 363.803 363.263 364.994 363.189 366.188
C 369.025 365.306 374.972 364.782 380.777 363.686
C 381.835 359.608 381.898 355.102 382.639 350.933
C 383.952 343.535 385.96 336.127 388.63 329.105
C 400.879 296.898 425.508 269.403 457.45 255.729
C 467.331 251.5 477.555 248.741 488.103 246.814
C 491.25 246.239 494.441 245.902 497.628 245.664
C 498.734 245.582 500.755 245.772 501.721 245.356
C 502.281 239.566 503.193 233.738 503.402 227.921
C 502.992 227.049 501.114 227.432 500.258 227.455
C 496.824 227.548 493.347 227.909 489.932 228.271
C 475.555 229.795 460.687 234.224 447.718 240.558
C 414.111 256.971 386.083 284.713 372.852 320.194
C 369.247 329.862 366.52 339.899 364.836 350.084
C 364.152 354.217 364.228 358.52 363.449 362.612 Z
M 387.906 377.866
C 388.456 396.237 394.748 414.039 403.49 429.982
C 407.303 429.147 410.983 427.263 414.799 426.283
C 420.799 424.741 427.031 424.126 433.215 423.972
C 452.933 423.48 473.16 432.508 486.892 446.406
C 489.749 449.298 492.544 452.423 494.899 455.741
C 496.605 458.143 497.832 460.837 499.451 463.285
C 499.701 463.23 499.237 460.904 499.203 460.596
C 498.85 457.438 498.175 454.285 497.649 451.151
C 496.137 442.132 494.462 433.294 492.164 424.436
C 491.125 420.435 490.36 415.802 488.228 412.217
C 485.278 407.258 480.23 403.152 475.896 399.456
C 458.111 384.29 434.805 378.427 411.826 377.649
C 406.379 377.464 400.955 377.393 395.5 377.415
C 393.244 377.424 389.979 376.9 387.906 377.866 Z
M 388.932 358.098
C 388.786 359.161 388.713 360.229 388.606 361.296
C 389.835 361.377 391.242 360.494 392.442 360.181
C 396.883 359.023 401.257 357.271 405.526 355.593
C 420.766 349.606 434.615 340.485 449.972 334.846
C 456.266 332.534 463.016 331.065 469.743 331.019
C 472.28 331.002 474.841 331.011 477.359 331.356
C 478.235 331.476 479.895 332.059 480.711 331.749
C 484.559 322.775 488.273 313.724 491.015 304.332
C 493.78 294.862 495.696 285.253 497.489 275.565
C 498.845 268.236 500.446 260.615 500.785 253.16
C 490.799 254.191 481.287 255.179 471.658 258.334
C 438.647 269.151 411.523 293.97 397.715 325.931
C 394.43 333.536 392.046 341.577 390.308 349.667
C 389.707 352.462 389.502 355.311 388.932 358.098 Z
M 388.778 369.614
C 388.788 370.484 391.042 369.988 391.755 369.986
C 395.154 369.972 398.597 370.142 402.006 370.187
C 411.017 370.306 420.05 370.721 428.978 372.01
C 442.737 373.997 456.318 378.374 468.373 385.356
C 471.921 387.411 475.387 389.716 478.464 392.437
C 479.994 393.79 482.284 396.692 484.248 397.284
C 480.942 389.003 477.181 380.299 472.396 372.758
C 470.35 369.533 468.191 366.375 466.051 363.213
C 465.154 361.887 463.639 360.023 463.406 358.429
C 468.471 351.88 473.584 346.002 477.335 338.542
C 471.574 338.135 465.76 338.086 460.091 339.342
C 453.427 340.818 447.327 343.614 441.174 346.472
C 431.651 350.894 422.365 355.833 412.748 360.053
C 408.212 362.043 403.607 364.138 398.868 365.603
C 395.674 366.59 391.275 367.301 388.778 369.614 Z
M 407.719 436.483
C 407.624 438.36 410.196 440.761 411.266 442.212
C 415.212 447.569 419.524 452.512 424.263 457.183
C 439.546 472.246 458.756 483.008 479.554 488.284
C 484.295 489.486 489.078 490.381 493.925 491.044
C 496.187 491.353 498.657 491.974 500.94 491.804
C 498.476 456.393 464.35 428.875 429.478 431.535
C 421.939 432.11 414.579 433.059 407.719 436.483 Z
M 472.233 359.002
C 472.186 360.072 473.183 361.134 473.772 362.003
C 475.399 364.404 476.968 366.802 478.453 369.296
C 483.49 377.756 487.842 386.69 491.337 395.9
C 497.529 412.215 501.72 429.102 504.407 446.336
C 505.901 455.919 505.859 466.165 508.432 475.527
C 509.118 474.362 509.04 472.064 509.237 470.706
C 509.846 466.505 510.226 462.268 510.8 458.059
C 512.384 446.451 514.655 434.891 517.588 423.549
C 521.599 408.04 526.837 392.692 533.916 378.302
C 536.18 373.698 538.683 369.055 541.419 364.715
C 542.585 362.864 544.798 360.595 545.403 358.52
C 543.878 356.222 541.907 354.19 540.329 351.908
C 537.428 347.713 534.804 343.359 532.311 338.911
C 523.935 323.97 518.835 307.685 514.95 291.086
C 513.022 282.853 511.758 274.527 510.404 266.191
C 509.946 263.37 509.829 260.46 509.198 257.674
C 508.995 256.781 508.546 253.41 508.268 253.865
C 504.036 282.831 499.227 312.069 485.667 338.372
C 481.903 345.672 477.238 352.513 472.233 359.002 Z
M 513.32 227.212
C 514.038 233.077 514.222 238.998 515.107 244.853
C 519.067 245.996 523.824 245.858 527.928 246.423
C 535.196 247.423 542.741 249.285 549.639 251.792
C 574.914 260.979 596.851 277.465 612.348 299.483
C 616.65 305.594 620.948 312.187 623.842 319.111
C 627.713 328.373 631.103 337.559 633.085 347.44
C 633.83 351.152 634.137 354.902 634.641 358.645
C 634.838 360.106 634.528 361.957 635.152 363.301
C 639.159 363.638 643.174 364.409 647.16 364.952
C 649.011 365.204 651.557 364.966 653.275 365.642
C 652.641 360.139 652.422 354.593 651.506 349.118
C 649.409 336.592 645.868 324.311 640.664 312.721
C 624.573 276.881 593.038 248.431 556.155 235.257
C 542.338 230.322 527.892 228.026 513.32 227.212 Z
M 513.968 511.12
C 513.781 512.788 513.277 515.398 513.844 516.984
C 518.461 516.435 523.139 516.648 527.772 515.991
C 540.774 514.146 553.699 510.288 565.698 504.966
C 599.329 490.049 626.492 462.238 641.307 428.656
C 648.517 412.312 652.248 394.459 653.209 376.697
C 651.936 376.308 650.311 376.646 648.992 376.684
C 645.968 376.772 642.942 376.8 639.917 376.886
C 638.565 376.925 636.181 376.778 635.114 377.532
C 634.351 382.69 634.344 387.949 633.566 393.13
C 632.223 402.071 629.44 410.882 626.004 419.222
C 612.959 450.888 586.466 478.258 554.335 490.69
C 545.621 494.062 536.557 496.736 527.316 498.194
C 523.337 498.821 519.297 498.832 515.303 499.285
C 514.205 503.134 514.755 507.234 513.968 511.12 Z
M 515.897 252.781
C 516.692 256.429 516.765 260.217 517.506 263.876
C 519.55 273.967 520.823 284.182 523.304 294.195
C 524.136 297.553 524.964 300.925 525.963 304.236
C 526.398 305.676 526.597 307.459 527.695 308.565
C 532.561 309.493 537.279 309.691 542.015 311.421
C 562.846 319.03 579.76 334.908 598.222 346.724
C 604.202 350.551 610.573 353.88 617.121 356.617
C 619.319 357.536 621.536 358.417 623.776 359.231
C 624.991 359.673 626.557 359.951 627.614 360.72
C 626.636 357.04 626.744 352.912 625.969 349.141
C 624.125 340.177 621.34 331.413 617.477 323.108
C 604.591 295.41 580.906 272.327 552.464 260.936
C 540.677 256.215 528.485 253.848 515.897 252.781 Z
M 516.42 488.601
C 516.328 489.4 515.732 491.491 516.425 491.939
C 547.016 488.828 575.391 475.967 596.076 452.816
C 600.014 448.407 603.426 443.917 606.852 439.104
C 608.197 437.215 610.504 434.835 610.978 432.545
C 609.489 430.716 606.086 429.805 603.924 429.07
C 596.814 426.652 589.531 425.906 582.081 426.06
C 557.197 426.573 532.377 445.043 521.922 467.144
C 518.679 473.999 517.937 481.293 516.42 488.601 Z
M 518.144 458.663
C 518.138 458.877 518.133 459.092 518.127 459.307
C 519.145 459.202 520.063 456.897 520.567 456.092
C 522.738 452.62 525.318 449.46 527.935 446.321
C 535.396 437.371 545.707 429.78 556.438 425.216
C 569.427 419.691 583.107 417.793 597.074 420.209
C 601.426 420.962 605.617 422.265 609.712 423.897
C 611.036 424.424 613.609 426.232 614.953 426.026
C 622.851 410.808 626.849 394.414 627.956 377.385
C 627.297 376.989 626.265 377.167 625.501 377.153
C 623.344 377.111 621.187 377.075 619.028 377.078
C 610.994 377.088 602.932 377.098 594.948 378.043
C 575.114 380.391 556.327 386.621 540.89 399.711
C 537.063 402.956 532.731 406.487 529.92 410.693
C 527.39 414.478 526.47 419.91 525.216 424.234
C 523.147 431.365 521.544 438.633 520.095 445.913
C 519.256 450.125 518.31 454.361 518.144 458.663 Z
M 530.558 317.667
C 534.526 329.003 540.424 339.675 547.377 349.448
C 549.671 352.672 552.7 355.354 554.913 358.614
C 554.678 359.821 552.948 361.22 552.198 362.18
C 550.237 364.693 548.555 367.363 546.867 370.062
C 541.68 378.352 537.089 387.521 533.762 396.715
C 533.848 397.021 534.512 396.365 534.624 396.263
C 535.364 395.593 536.046 394.868 536.76 394.17
C 538.566 392.406 540.746 390.832 542.817 389.394
C 549.194 384.965 555.901 381.124 563.135 378.271
C 577.393 372.649 592.446 370.804 607.647 369.914
C 614.226 369.529 621.052 370.121 627.578 369.244
C 627.907 369.029 627.744 368.599 627.623 368.28
C 624.404 366.62 620.645 365.819 617.273 364.486
C 610.815 361.932 604.625 358.796 598.635 355.284
C 584.683 347.106 572.339 336.502 558.518 328.174
C 552.411 324.494 546.32 321.307 539.679 318.706
C 536.826 317.589 533.421 316.283 530.341 316.875
C 530.414 317.139 530.486 317.403 530.558 317.667 Z"
opacity="1" fill="rgb(13,59,93)" fill-rule="evenodd" />
<path d="
M 331.828 810.006
C 331.885 809.847 331.942 809.688 331.999 809.529
C 332.739 808.966 333.498 808.396 334.447 808.29
C 335.06 809.65 335.884 811.115 337.281 811.795
C 339.622 812.934 342.923 811.397 343.754 809
C 344.434 807.036 344.077 804.608 344.079 802.563
C 344.084 798.299 344.142 794.021 344.068 789.762
C 345.151 789.684 346.61 789.358 347.639 789.761
C 348.021 794.455 347.709 799.232 347.652 803.937
C 347.618 806.775 347.82 809.733 346.109 812.181
C 342.896 816.778 332.391 816.769 331.828 810.006 Z"
opacity="1" fill="rgb(25,65,102)" fill-rule="evenodd" />
<path d="
M 349.761 610.856
C 354.998 610.637 360.261 610.71 365.504 610.713
C 366.93 610.714 370.312 610.11 371.417 610.943
C 375.106 617.601 379.809 623.916 383.928 630.333
C 391.267 641.767 398.395 653.346 405.626 664.834
C 406.875 664.062 407.778 661.567 408.571 660.32
C 410.873 656.704 413.199 653.098 415.539 649.506
C 423.906 636.663 431.792 623.401 440.468 610.775
C 444.36 610.189 448.573 610.614 452.507 610.6
C 455.506 610.589 458.849 610.164 461.794 610.742
C 461.756 612.165 459.453 614.56 458.684 615.749
C 455.837 620.148 452.898 624.487 450.042 628.881
C 441.899 641.411 433.337 653.669 425.142 666.165
C 422.706 669.879 420.136 673.505 417.665 677.197
C 416.662 678.697 415.093 680.366 414.436 682.041
C 414.02 683.102 414.271 684.667 414.259 685.793
C 414.228 688.695 414.245 691.598 414.245 694.501
C 414.245 703.169 414.284 711.837 414.32 720.505
C 414.331 723.24 414.307 725.976 414.319 728.711
C 414.325 729.947 414.618 731.511 414.332 732.711
C 410.231 732.85 406.104 732.677 402 732.671
C 400.56 732.669 398.05 733.197 396.777 732.664
C 396.808 720.947 396.728 709.224 396.673 697.505
C 396.657 694.006 396.654 690.506 396.631 687.007
C 396.621 685.526 396.957 683.649 396.482 682.236
C 395.684 679.864 393.684 677.631 392.349 675.529
C 389.25 670.648 386.002 665.862 382.914 660.973
C 372.225 644.049 360.258 627.877 349.761 610.856 Z"
opacity="1" fill="rgb(14,60,93)" fill-rule="evenodd" />
<path d="
M 355.98 801.618
C 356.49 787.843 376.429 784.556 382.106 796.708
C 383.061 798.752 383.382 800.917 383.3 803.157
C 382.809 816.617 362.671 819.958 357.127 808.02
C 356.17 805.96 355.897 803.864 355.98 801.618 Z
M 359.864 800.583
C 359.637 802.083 359.765 803.616 360.133 805.083
C 362.667 815.205 377.955 813.978 379.482 803.909
C 380.06 800.1 378.359 795.733 374.967 793.73
C 369.085 790.256 360.908 793.687 359.864 800.583 Z"
opacity="1" fill="rgb(20,60,98)" fill-rule="evenodd" />
<path d="
M 363.05 377.63
C 363.048 377.415 363.046 377.199 363.044 376.983
C 364.975 376.366 367.399 376.834 369.408 376.943
C 373.025 377.14 377.103 376.824 380.63 377.654
C 381.503 390.828 384.038 403.7 388.762 416.054
C 401.193 448.567 426.926 474.846 458.662 488.818
C 468.23 493.031 478.403 495.895 488.676 497.752
C 493.051 498.543 497.708 498.474 502.009 499.518
C 502.726 500.553 502.536 503.172 502.612 504.482
C 502.848 508.584 503.336 512.7 503.346 516.808
C 502.531 517.144 501.193 516.886 500.312 516.869
C 497.368 516.811 494.407 516.475 491.483 516.141
C 478.986 514.711 466.675 510.973 455.004 506.415
C 418.898 492.316 388.58 462.374 373.921 426.514
C 369.528 415.767 366.166 404.419 364.472 392.92
C 363.723 387.837 363.472 382.742 363.05 377.63 Z"
opacity="1" fill="rgb(254,254,254)" fill-rule="evenodd" />
<path d="
M 363.449 362.612
C 364.228 358.52 364.152 354.217 364.836 350.084
C 366.52 339.899 369.247 329.862 372.852 320.194
C 386.083 284.713 414.111 256.971 447.718 240.558
C 460.687 234.224 475.555 229.795 489.932 228.271
C 493.347 227.909 496.824 227.548 500.258 227.455
C 501.114 227.432 502.992 227.049 503.402 227.921
C 503.193 233.738 502.281 239.566 501.721 245.356
C 500.755 245.772 498.734 245.582 497.628 245.664
C 494.441 245.902 491.25 246.239 488.103 246.814
C 477.555 248.741 467.331 251.5 457.45 255.729
C 425.508 269.403 400.879 296.898 388.63 329.105
C 385.96 336.127 383.952 343.535 382.639 350.933
C 381.898 355.102 381.835 359.608 380.777 363.686
C 374.972 364.782 369.025 365.306 363.189 366.188
C 363.263 364.994 363.319 363.803 363.449 362.612 Z"
opacity="1" fill="rgb(255,254,254)" fill-rule="evenodd" />
<path d="
M 387.906 377.866
C 389.979 376.9 393.244 377.424 395.5 377.415
C 400.955 377.393 406.379 377.464 411.826 377.649
C 434.805 378.427 458.111 384.29 475.896 399.456
C 480.23 403.152 485.278 407.258 488.228 412.217
C 490.36 415.802 491.125 420.435 492.164 424.436
C 494.462 433.294 496.137 442.132 497.649 451.151
C 498.175 454.285 498.85 457.438 499.203 460.596
C 499.237 460.904 499.701 463.23 499.451 463.285
C 497.832 460.837 496.605 458.143 494.899 455.741
C 492.544 452.423 489.749 449.298 486.892 446.406
C 473.16 432.508 452.933 423.48 433.215 423.972
C 427.031 424.126 420.799 424.741 414.799 426.283
C 410.983 427.263 407.303 429.147 403.49 429.982
C 394.748 414.039 388.456 396.237 387.906 377.866 Z"
opacity="1" fill="rgb(91,168,223)" fill-rule="evenodd" />
<path d="
M 388.778 369.614
C 391.275 367.301 395.674 366.59 398.868 365.603
C 403.607 364.138 408.212 362.043 412.748 360.053
C 422.365 355.833 431.651 350.894 441.174 346.472
C 447.327 343.614 453.427 340.818 460.091 339.342
C 465.76 338.086 471.574 338.135 477.335 338.542
C 473.584 346.002 468.471 351.88 463.406 358.429
C 463.639 360.023 465.154 361.887 466.051 363.213
C 468.191 366.375 470.35 369.533 472.396 372.758
C 477.181 380.299 480.942 389.003 484.248 397.284
C 482.284 396.692 479.994 393.79 478.464 392.437
C 475.387 389.716 471.921 387.411 468.373 385.356
C 456.318 378.374 442.737 373.997 428.978 372.01
C 420.05 370.721 411.017 370.306 402.006 370.187
C 398.597 370.142 395.154 369.972 391.755 369.986
C 391.042 369.988 388.788 370.484 388.778 369.614 Z"
opacity="1" fill="rgb(19,103,155)" fill-rule="evenodd" />
<path d="
M 391.49 790.605
C 391.561 790.15 391.513 790.447 391.641 789.715
C 392.397 789.695 394.429 789.332 395.039 789.847
C 395.694 793.989 395.17 798.489 395.139 802.671
C 395.124 804.637 394.839 806.993 395.72 808.822
C 397.733 813 405.51 813.56 407.813 809.316
C 408.95 807.221 408.692 804.673 408.698 802.373
C 408.71 798.262 408.504 794.095 408.875 789.999
C 409.967 789.614 411.061 789.667 412.206 789.706
C 412.407 793.947 412.273 798.222 412.294 802.472
C 412.308 805.303 412.611 808.248 411.165 810.816
C 407.778 816.825 396.851 817.319 393.125 811.375
C 390.652 807.432 391.546 801.751 391.544 797.31
C 391.543 795.096 391.215 792.805 391.49 790.605 Z"
opacity="1" fill="rgb(24,65,100)" fill-rule="evenodd" />
<path d="
M 407.719 436.483
C 414.579 433.059 421.939 432.11 429.478 431.535
C 464.35 428.875 498.476 456.393 500.94 491.804
C 498.657 491.974 496.187 491.353 493.925 491.044
C 489.078 490.381 484.295 489.486 479.554 488.284
C 458.756 483.008 439.546 472.246 424.263 457.183
C 419.524 452.512 415.212 447.569 411.266 442.212
C 410.196 440.761 407.624 438.36 407.719 436.483 Z"
opacity="1" fill="rgb(91,168,223)" fill-rule="evenodd" />
<path d="
M 422.19 789.727
C 426.594 789.841 432.599 788.627 436.731 790.379
C 440.716 792.069 442.359 797.351 440.258 801.122
C 439.194 803.033 437.535 803.722 435.794 804.857
C 437.303 807.01 438.578 809.783 439.741 812.168
C 440.027 812.755 440.893 814.01 440.803 814.626
C 439.527 814.681 437.993 815.046 436.762 814.635
C 435.726 811.594 434.006 807.91 431.96 805.423
C 430.088 805.058 427.812 805.197 425.929 805.487
C 425.651 808.429 425.318 811.682 425.671 814.631
C 424.736 814.8 422.948 815.15 422.157 814.606
C 422.159 806.409 421.512 797.89 422.19 789.727 Z
M 425.716 793.147
C 425.47 796.057 425.469 799.03 425.742 801.942
C 428.418 802.318 433.528 802.671 435.821 801.085
C 438.481 799.246 437.845 794.526 434.959 793.229
C 432.562 792.151 428.274 792.848 425.716 793.147 Z"
opacity="1" fill="rgb(27,65,99)" fill-rule="evenodd" />
<path d="
M 449.759 789.798
C 451.106 789.699 452.425 789.582 453.777 789.694
C 455.423 791.488 456.545 793.769 457.894 795.785
C 459.799 798.631 461.855 801.373 463.742 804.23
C 464.787 805.811 466.259 809.088 467.899 810.041
C 468.527 808.648 467.936 805.558 467.949 803.994
C 467.986 799.25 467.598 794.429 468.105 789.709
C 469.271 789.707 470.429 789.565 471.59 789.763
C 472.105 796.087 471.758 802.644 471.698 808.993
C 471.684 810.466 471.721 811.946 471.672 813.418
C 471.662 813.715 471.788 814.765 471.508 814.914
C 470.081 814.881 468.601 815.073 467.192 814.819
C 465.696 813.793 464.722 811.607 463.731 810.117
C 461.501 806.764 459.231 803.423 456.869 800.163
C 456.092 799.09 454.37 795.461 453.118 795.217
C 453.626 801.672 452.653 808.285 453.328 814.721
C 452.192 814.756 451.057 814.804 449.921 814.847
C 449.025 813.157 449.756 809.433 449.76 807.504
C 449.775 801.608 449.577 795.688 449.759 789.798 Z"
opacity="1" fill="rgb(25,65,100)" fill-rule="evenodd" />
<path d="
M 472.233 359.002
C 477.238 352.513 481.903 345.672 485.667 338.372
C 499.227 312.069 504.036 282.831 508.268 253.865
C 508.546 253.41 508.995 256.781 509.198 257.674
C 509.829 260.46 509.946 263.37 510.404 266.191
C 511.758 274.527 513.022 282.853 514.95 291.086
C 518.835 307.685 523.935 323.97 532.311 338.911
C 534.804 343.359 537.428 347.713 540.329 351.908
C 541.907 354.19 543.878 356.222 545.403 358.52
C 544.798 360.595 542.585 362.864 541.419 364.715
C 538.683 369.055 536.18 373.698 533.916 378.302
C 526.837 392.692 521.599 408.04 517.588 423.549
C 514.655 434.891 512.384 446.451 510.8 458.059
C 510.226 462.268 509.846 466.505 509.237 470.706
C 509.04 472.064 509.118 474.362 508.432 475.527
C 505.859 466.165 505.901 455.919 504.407 446.336
C 501.72 429.102 497.529 412.215 491.337 395.9
C 487.842 386.69 483.49 377.756 478.453 369.296
C 476.968 366.802 475.399 364.404 473.772 362.003
C 473.183 361.134 472.186 360.072 472.233 359.002 Z
M 496.436 356.082
C 496.062 357.639 496.092 359.455 496.314 361.035
C 496.545 362.672 497.128 364.229 497.928 365.67
C 503.431 375.581 518.525 372.54 521.004 361.951
C 523.41 351.675 512.319 342.73 502.892 347.722
C 501.284 348.574 499.82 349.903 498.726 351.351
C 497.674 352.745 496.846 354.377 496.436 356.082 Z"
opacity="1" fill="rgb(254,253,254)" fill-rule="evenodd" />
<path d="
M 481.665 789.714
C 485.039 789.559 488.424 789.725 491.802 789.736
C 493.958 789.743 496.285 789.482 498.418 789.812
C 498.359 790.812 498.517 791.832 498.394 792.828
C 495.269 792.85 492.136 792.85 489.008 792.91
C 487.905 792.93 486.292 792.642 485.277 793.088
C 485.239 795.601 485.204 798.113 485.206 800.626
C 488.536 800.366 492.856 800.047 496.133 800.677
C 496.232 801.536 496.55 802.85 496.06 803.621
C 492.488 804.096 488.787 803.629 485.195 803.77
C 485.151 806.064 484.66 809.295 485.37 811.481
C 489.635 811.155 493.998 811.546 498.27 811.591
C 498.23 812.584 498.599 813.755 498.361 814.719
C 494.609 814.973 490.771 814.734 487.008 814.743
C 485.498 814.747 483.089 815.194 481.711 814.624
C 481.811 806.326 481.377 798.005 481.665 789.714 Z"
opacity="1" fill="rgb(24,63,96)" fill-rule="evenodd" />
<path d="
M 483.984 612.101
C 484.077 611.515 484.045 611.86 484.022 611.063
C 485.057 610.34 487.252 610.751 488.504 610.749
C 492.425 610.741 496.952 610.143 500.796 610.955
C 503.806 614.391 506.423 618.2 509.201 621.823
C 515.468 629.998 521.717 638.195 527.9 646.435
C 541.14 664.075 555.076 681.313 567.771 699.346
C 568.011 699.531 567.825 698.471 567.808 698.363
C 567.702 697.703 567.794 696.944 567.832 696.278
C 567.962 694.026 567.899 691.752 567.904 689.497
C 567.922 682.831 567.899 676.166 567.903 669.5
C 567.91 657.582 567.824 645.655 567.923 633.744
C 567.987 626.154 568.477 618.294 567.924 610.732
C 573.677 610.885 579.642 610.86 585.394 610.597
C 585.723 613.307 585.431 616.268 585.438 619.008
C 585.45 624.675 585.464 630.342 585.467 636.008
C 585.477 653.577 585.384 671.156 585.459 688.716
C 585.503 698.813 585.501 708.912 585.453 719.008
C 585.438 722.008 585.407 725.007 585.411 728.007
C 585.413 729.419 585.71 731.284 585.38 732.643
C 582.429 732.789 579.452 732.581 576.497 732.635
C 574.544 732.671 572.172 733.015 570.29 732.446
C 562.59 723.706 556.035 713.665 549.225 704.228
C 539.462 690.699 529.09 677.559 518.923 664.332
C 514.737 658.887 510.675 653.345 506.491 647.899
C 504.841 645.75 503.319 643.254 501.339 641.409
C 501.939 648.848 501.439 656.539 501.455 664.008
C 501.487 678.764 501.483 693.522 501.557 708.277
C 501.585 713.921 501.432 719.55 501.434 725.194
C 501.435 727.477 500.972 730.347 501.46 732.563
C 500.662 733.151 498.058 732.625 497.039 732.617
C 492.839 732.581 488.301 733.132 484.144 732.581
C 483.712 707.064 483.927 681.525 483.908 656.001
C 483.901 646.5 483.964 636.998 483.954 627.497
C 483.949 622.389 483.64 617.198 483.984 612.101 Z"
opacity="1" fill="rgb(15,61,93)" fill-rule="evenodd" />
<path d="
M 496.436 356.082
C 496.846 354.377 497.674 352.745 498.726 351.351
C 499.82 349.903 501.284 348.574 502.892 347.722
C 512.319 342.73 523.41 351.675 521.004 361.951
C 518.525 372.54 503.431 375.581 497.928 365.67
C 497.128 364.229 496.545 362.672 496.314 361.035
C 496.092 359.455 496.062 357.639 496.436 356.082 Z"
opacity="1" fill="rgb(15,61,95)" fill-rule="evenodd" />
<path d="
M 504.546 789.78
C 505.787 789.751 507.02 789.637 508.262 789.599
C 509.319 790.474 509.962 792.045 510.688 793.199
C 512.398 795.917 513.925 798.748 515.615 801.48
C 516.186 801.643 517.282 799.131 517.573 798.639
C 519.185 795.91 520.541 791.818 522.799 789.615
C 524.051 789.493 525.566 789.371 526.812 789.622
C 524.911 793.498 522.398 797.066 520.116 800.732
C 519.326 802.002 517.987 803.399 517.501 804.807
C 516.482 807.763 517.791 811.577 517.353 814.651
C 516.156 814.744 514.944 814.746 513.744 814.764
C 513.455 811.777 514.451 808.005 513.538 805.14
C 513.022 803.517 511.786 801.937 510.927 800.477
C 508.828 796.906 506.497 793.419 504.546 789.78 Z"
opacity="1" fill="rgb(26,68,102)" fill-rule="evenodd" />
<path d="
M 513.32 227.212
C 527.892 228.026 542.338 230.322 556.155 235.257
C 593.038 248.431 624.573 276.881 640.664 312.721
C 645.868 324.311 649.409 336.592 651.506 349.118
C 652.422 354.593 652.641 360.139 653.275 365.642
C 651.557 364.966 649.011 365.204 647.16 364.952
C 643.174 364.409 639.159 363.638 635.152 363.301
C 634.528 361.957 634.838 360.106 634.641 358.645
C 634.137 354.902 633.83 351.152 633.085 347.44
C 631.103 337.559 627.713 328.373 623.842 319.111
C 620.948 312.187 616.65 305.594 612.348 299.483
C 596.851 277.465 574.914 260.979 549.639 251.792
C 542.741 249.285 535.196 247.423 527.928 246.423
C 523.824 245.858 519.067 245.996 515.107 244.853
C 514.222 238.998 514.038 233.077 513.32 227.212 Z"
opacity="1" fill="rgb(254,253,253)" fill-rule="evenodd" />
<path d="
M 513.968 511.12
C 514.755 507.234 514.205 503.134 515.303 499.285
C 519.297 498.832 523.337 498.821 527.316 498.194
C 536.557 496.736 545.621 494.062 554.335 490.69
C 586.466 478.258 612.959 450.888 626.004 419.222
C 629.44 410.882 632.223 402.071 633.566 393.13
C 634.344 387.949 634.351 382.69 635.114 377.532
C 636.181 376.778 638.565 376.925 639.917 376.886
C 642.942 376.8 645.968 376.772 648.992 376.684
C 650.311 376.646 651.936 376.308 653.209 376.697
C 652.248 394.459 648.517 412.312 641.307 428.656
C 626.492 462.238 599.329 490.049 565.698 504.966
C 553.699 510.288 540.774 514.146 527.772 515.991
C 523.139 516.648 518.461 516.435 513.844 516.984
C 513.277 515.398 513.781 512.788 513.968 511.12 Z"
opacity="1" fill="rgb(255,254,254)" fill-rule="evenodd" />
<path d="
M 516.42 488.601
C 517.937 481.293 518.679 473.999 521.922 467.144
C 532.377 445.043 557.197 426.573 582.081 426.06
C 589.531 425.906 596.814 426.652 603.924 429.07
C 606.086 429.805 609.489 430.716 610.978 432.545
C 610.504 434.835 608.197 437.215 606.852 439.104
C 603.426 443.917 600.014 448.407 596.076 452.816
C 575.391 475.967 547.016 488.828 516.425 491.939
C 515.732 491.491 516.328 489.4 516.42 488.601 Z"
opacity="1" fill="rgb(19,103,155)" fill-rule="evenodd" />
<path d="
M 518.144 458.663
C 518.31 454.361 519.256 450.125 520.095 445.913
C 521.544 438.633 523.147 431.365 525.216 424.234
C 526.47 419.91 527.39 414.478 529.92 410.693
C 532.731 406.487 537.063 402.956 540.89 399.711
C 556.327 386.621 575.114 380.391 594.948 378.043
C 602.932 377.098 610.994 377.088 619.028 377.078
C 621.187 377.075 623.344 377.111 625.501 377.153
C 626.265 377.167 627.297 376.989 627.956 377.385
C 626.849 394.414 622.851 410.808 614.953 426.026
C 613.609 426.232 611.036 424.424 609.712 423.897
C 605.617 422.265 601.426 420.962 597.074 420.209
C 583.107 417.793 569.427 419.691 556.438 425.216
C 545.707 429.78 535.396 437.371 527.935 446.321
C 525.318 449.46 522.738 452.62 520.567 456.092
C 520.063 456.897 519.145 459.202 518.127 459.307
C 518.133 459.092 518.138 458.877 518.144 458.663 Z"
opacity="1" fill="rgb(20,103,156)" fill-rule="evenodd" />
<path d="
M 529.44 819.056
C 529.848 818.065 531.112 816.698 530.965 815.613
C 530.489 815.303 530.07 814.999 529.675 814.588
C 529.397 813.209 529.75 812.142 530.466 810.975
C 531.413 810.714 532.863 810.698 533.62 811.421
C 533.761 814.354 534.013 818.182 531.285 820.179
C 530.643 820.282 530.056 820.268 529.417 820.158
C 529.148 819.498 529.186 819.863 529.44 819.056 Z"
opacity="1" fill="rgb(24,68,106)" fill-rule="evenodd" />
<path d="
M 530.558 317.667
C 530.486 317.403 530.414 317.139 530.341 316.875
C 533.421 316.283 536.826 317.589 539.679 318.706
C 546.32 321.307 552.411 324.494 558.518 328.174
C 572.339 336.502 584.683 347.106 598.635 355.284
C 604.625 358.796 610.815 361.932 617.273 364.486
C 620.645 365.819 624.404 366.62 627.623 368.28
C 627.744 368.599 627.907 369.029 627.578 369.244
C 621.052 370.121 614.226 369.529 607.647 369.914
C 592.446 370.804 577.393 372.649 563.135 378.271
C 555.901 381.124 549.194 384.965 542.817 389.394
C 540.746 390.832 538.566 392.406 536.76 394.17
C 536.046 394.868 535.364 395.593 534.624 396.263
C 534.512 396.365 533.848 397.021 533.762 396.715
C 537.089 387.521 541.68 378.352 546.867 370.062
C 548.555 367.363 550.237 364.693 552.198 362.18
C 552.948 361.22 554.678 359.821 554.913 358.614
C 552.7 355.354 549.671 352.672 547.377 349.448
C 540.424 339.675 534.526 329.003 530.558 317.667 Z"
opacity="1" fill="rgb(94,170,224)" fill-rule="evenodd" />
<path d="
M 551.605 789.755
C 552.983 789.705 554.268 789.587 555.634 789.811
C 557.761 793.954 560.603 798.014 563.136 801.925
C 563.797 801.738 564.599 799.616 564.948 799.033
C 566.712 796.083 568.234 792.583 570.397 789.919
C 571.352 789.201 573.178 789.511 574.297 789.74
C 574.535 790.222 573.916 791.193 573.683 791.629
C 572.692 793.483 571.399 795.282 570.239 797.038
C 569.08 798.792 567.92 800.543 566.77 802.302
C 566.188 803.192 565.219 804.087 564.858 805.089
C 564.307 806.618 564.717 809.07 564.706 810.7
C 564.699 811.797 564.36 813.73 564.752 814.734
C 563.566 814.708 562.326 814.88 561.15 814.71
C 561.137 812.634 561.041 810.572 560.949 808.501
C 560.902 807.451 561.143 806.187 560.731 805.191
C 558.5 799.793 554.539 794.793 551.605 789.755 Z"
opacity="1" fill="rgb(25,66,101)" fill-rule="evenodd" />
<path d="
M 578.942 801.615
C 579.037 799.801 579.486 797.881 580.323 796.271
C 586.718 783.967 606.828 788.958 606.214 803.047
C 605.597 817.207 583.897 820.172 579.65 806.67
C 579.119 804.982 578.848 803.386 578.942 801.615 Z
M 582.916 800.082
C 582.233 803.192 583.095 807.41 585.506 809.644
C 590.964 814.704 600.519 812.102 602.071 804.741
C 602.74 801.573 601.842 797.011 599.275 794.818
C 593.653 790.013 584.528 792.744 582.916 800.082 Z"
opacity="1" fill="rgb(21,62,98)" fill-rule="evenodd" />
<path d="
M 614.446 790.602
C 614.448 790.444 614.45 790.286 614.452 790.128
C 615.134 789.712 617.236 789.264 617.908 789.906
C 617.953 793.845 618.141 797.77 618.095 801.722
C 618.069 804.025 617.683 806.771 618.716 808.915
C 620.792 813.225 628.161 813.424 630.567 809.309
C 631.695 807.38 631.535 804.797 631.557 802.635
C 631.602 798.344 631.56 794.049 631.609 789.764
C 632.782 789.586 634.009 789.465 635.175 789.731
C 635.297 794.111 635.249 798.499 635.24 802.882
C 635.234 805.642 635.394 808.513 633.916 810.975
C 630.243 817.097 619.191 817.07 615.624 810.878
C 614.192 808.393 614.362 805.154 614.369 802.388
C 614.379 798.507 614.049 794.461 614.446 790.602 Z"
opacity="1" fill="rgb(24,65,101)" fill-rule="evenodd" />
<path d="
M 615.465 669.111
C 616.526 647.5 628.066 627.162 647.006 616.401
C 664.398 606.521 687.468 605.867 705.474 614.425
C 719.595 621.137 731.518 633.884 736.971 648.583
C 740.272 657.479 741.677 666.685 741.166 676.17
C 739.839 700.801 723.548 723.444 700.296 731.977
C 690.131 735.708 679.449 736.431 668.784 735.013
C 661.924 734.1 655.038 731.806 648.923 728.574
C 642.947 725.415 637.201 721.253 632.649 716.234
C 627.231 710.261 622.686 703.409 619.754 695.867
C 616.452 687.376 615.018 678.209 615.465 669.111 Z
M 633.951 666.617
C 633.215 673.963 633.937 681.416 636.326 688.413
C 638.175 693.827 641.247 699.017 645.05 703.29
C 648.697 707.387 653.085 710.885 657.99 713.357
C 678.065 723.474 702.749 716.89 715.267 698.171
C 719.502 691.838 721.88 684.136 722.679 676.602
C 725.35 651.393 706.937 628.066 681.469 625.992
C 675.913 625.54 670.27 626.212 664.935 627.78
C 659.734 629.307 654.843 632.249 650.597 635.57
C 646.074 639.108 642.135 643.729 639.475 648.829
C 636.524 654.486 634.59 660.245 633.951 666.617 Z"
opacity="1" fill="rgb(14,60,93)" fill-rule="evenodd" />
<path d="
M 644.853 789.839
C 647.986 789.598 651.151 789.722 654.294 789.74
C 656.135 789.75 658.263 789.676 659.933 790.546
C 663.938 792.633 665.082 798.117 662.682 801.838
C 661.79 803.221 660.363 803.909 658.958 804.669
C 658.652 805.304 659.705 806.833 660.06 807.486
C 661.345 809.85 663.045 812.204 663.855 814.789
C 662.518 814.604 661.074 815.078 659.745 814.694
C 658.016 811.742 656.455 808.538 654.948 805.47
C 653.183 805.015 650.853 805.294 649.027 805.374
C 647.508 807.412 648.33 812.218 648.366 814.719
C 647.241 814.79 646.113 814.826 644.986 814.839
C 644.171 813.384 644.796 809.713 644.795 808.004
C 644.794 801.968 644.485 795.864 644.853 789.839 Z
M 648.46 793.54
C 648.273 796.316 648.237 799.233 648.488 802.004
C 649.216 802.313 650.345 802.088 651.126 802.068
C 653.531 802.008 656.69 802.464 658.727 800.884
C 661.139 799.013 660.193 794.541 657.62 793.273
C 655.329 792.144 651.371 792.896 648.905 793.103
C 648.756 793.249 648.608 793.394 648.46 793.54 Z"
opacity="1" fill="rgb(26,65,100)" fill-rule="evenodd" />
<path d="
M 682.507 809.127
C 682.476 808.959 682.445 808.791 682.415 808.623
C 683.436 807.789 684.363 807.789 685.607 807.591
C 686.495 808.922 686.734 810.307 688.22 811.23
C 690.843 812.857 696.875 812.556 697.06 808.505
C 697.186 805.749 694.293 804.832 692.2 804.15
C 687.341 802.566 681.241 799.837 683.898 793.493
C 685.931 788.636 693.292 787.957 697.154 790.87
C 698.366 791.785 700.444 793.949 700.274 795.642
C 699.217 795.879 697.809 796.478 696.727 796.248
C 695.961 793.571 693.948 792.503 691.222 792.501
C 688.96 792.5 686.607 794.039 686.94 796.545
C 687.286 799.159 690.6 799.837 692.664 800.445
C 696.991 801.718 701.598 804.317 700.562 809.603
C 698.927 817.948 684.291 816.913 682.507 809.127 Z"
opacity="1" fill="rgb(24,63,99)" fill-rule="evenodd" />
<path d="
M 706.479 791.104
C 706.57 790.494 706.545 790.855 706.474 790.018
C 708.048 789.483 709.864 789.707 711.505 789.713
C 714.506 789.724 717.503 789.702 720.504 789.677
C 721.876 789.666 724.403 789.193 725.556 789.83
C 725.594 790.435 725.798 792.848 725.354 793.241
C 722.896 793.172 720.253 792.972 717.809 793.265
C 717.682 798.203 717.664 803.134 717.683 808.076
C 717.691 810.244 717.413 812.6 717.718 814.742
C 716.633 814.702 714.962 815.05 714.009 814.562
C 713.553 807.514 714.762 800.306 714.091 793.268
C 711.655 793.297 709.126 792.982 706.708 793.291
C 706.387 792.611 706.446 791.844 706.479 791.104 Z"
opacity="1" fill="rgb(26,64,97)" fill-rule="evenodd" />
<path d="
M 731.916 800.604
C 733.46 786.62 754.519 785.241 758.424 798.505
C 758.954 800.305 759.169 802.253 758.941 804.12
C 757.275 817.736 737.093 819.365 732.476 806.837
C 731.723 804.794 731.68 802.741 731.916 800.604 Z
M 735.89 799.564
C 734.976 802.99 735.829 807.555 738.667 809.885
C 743.954 814.225 752.975 812.329 754.875 805.463
C 755.869 801.867 754.875 796.846 751.758 794.462
C 746.184 790.198 737.707 792.754 735.89 799.564 Z"
opacity="1" fill="rgb(22,62,97)" fill-rule="evenodd" />
<path d="
M 755.766 611.235
C 758.584 610.257 762.538 610.933 765.506 610.927
C 772.339 610.915 779.171 610.894 786.004 610.906
C 808.165 610.945 830.432 610.211 852.58 610.878
C 853.14 612.195 852.663 614.363 852.662 615.781
C 852.657 619.739 852.323 623.841 852.623 627.782
C 846.11 627.474 839.519 627.778 832.997 627.766
C 826.207 627.752 819.314 627.427 812.541 627.913
C 811.693 632.725 812.339 638.126 812.348 643.003
C 812.365 652.67 812.354 662.336 812.34 672.003
C 812.32 685.669 812.332 699.336 812.322 713.002
C 812.317 719.402 811.524 726.341 812.263 732.684
C 808.053 732.432 803.719 732.662 799.497 732.671
C 798.256 732.674 795.846 733.196 794.797 732.633
C 795.38 712.13 794.769 691.517 794.772 671.003
C 794.773 661.337 794.793 651.67 794.784 642.003
C 794.779 637.392 795.065 632.681 794.741 628.085
C 794.169 627.596 792.734 627.885 792.005 627.877
C 789.67 627.851 787.334 627.833 784.999 627.82
C 775.377 627.766 765.567 627.289 755.967 627.89
C 755.335 627.214 755.789 624.48 755.785 623.503
C 755.767 619.414 755.761 615.324 755.766 611.235 Z"
opacity="1" fill="rgb(15,61,93)" fill-rule="evenodd" />
<path d="
M 767.5 790.607
C 767.518 790.459 767.536 790.311 767.554 790.163
C 768.822 788.94 772.679 789.632 774.43 789.652
C 777.454 789.687 780.852 789.436 783.502 791.164
C 786.967 793.423 787.384 798.954 785.066 802.156
C 784.13 803.45 782.727 804.179 781.376 804.957
C 782.691 806.867 783.674 809.122 784.764 811.177
C 785.307 812.202 786.239 813.601 786.408 814.747
C 785.072 814.789 783.54 815.026 782.236 814.703
C 780.825 811.563 779.342 808.367 777.449 805.486
C 775.543 805.168 773.427 805.345 771.496 805.419
C 770.901 806.321 771.072 807.447 771.094 808.494
C 771.138 810.51 770.825 812.704 771.145 814.695
C 770.029 814.559 768.725 814.661 767.602 814.739
C 766.853 812.137 767.531 808.424 767.562 805.683
C 767.617 800.745 766.892 795.503 767.5 790.607 Z
M 771.502 793.02
C 771.411 793.102 771.321 793.185 771.231 793.267
C 770.927 796.051 771.076 798.904 771.117 801.7
C 771.876 802.185 773.114 801.962 774 801.97
C 776.411 801.991 779.763 802.597 781.565 800.58
C 783.529 798.38 782.83 794.212 779.939 793.067
C 777.633 792.154 773.912 792.841 771.502 793.02 Z"
opacity="1" fill="rgb(28,67,102)" fill-rule="evenodd" />
<path d="
M 791.609 789.743
C 792.804 789.661 793.964 789.694 795.154 789.675
C 798.72 792.784 799.488 798.829 802.831 802.097
C 803.663 801.376 804.263 799.82 804.846 798.859
C 806.581 795.996 807.975 792.21 810.172 789.707
C 811.524 789.545 812.917 789.558 814.268 789.733
C 813.859 791.447 812.535 793.022 811.586 794.467
C 810.147 796.658 808.856 798.946 807.41 801.133
C 806.579 802.389 805.278 803.773 804.758 805.189
C 804.438 806.06 804.647 807.263 804.648 808.182
C 804.652 810.349 804.518 812.635 804.72 814.786
C 803.472 814.914 802.197 814.747 800.946 814.812
C 800.756 812.005 801.775 807.825 800.684 805.217
C 800.06 803.725 798.769 802.323 797.908 800.946
C 796.632 798.905 795.509 796.765 794.194 794.749
C 793.109 793.084 791.93 791.756 791.609 789.743 Z"
opacity="1" fill="rgb(26,68,104)" fill-rule="evenodd" />
<path d="
M 816.412 813.096
C 817.08 809.276 822.255 811.12 820.726 814.783
C 819.759 815.778 818.058 815.634 816.995 814.848
C 816.518 814.29 816.44 813.818 816.412 813.096 Z"
opacity="1" fill="rgb(22,62,101)" fill-rule="evenodd" />
<path d="
M 877.605 611.128
C 881.193 610.68 884.891 610.896 888.503 610.881
C 894.502 610.856 900.502 610.832 906.501 610.817
C 923.517 610.773 940.566 610.491 957.578 610.809
C 958.009 612.169 957.672 613.883 957.681 615.297
C 957.709 619.348 957.344 623.537 957.602 627.564
C 956.353 628.159 953.895 627.689 952.503 627.683
C 948.334 627.664 944.165 627.695 939.997 627.699
C 925.141 627.714 910.076 626.983 895.248 627.84
C 894.679 639.378 895.954 651.022 895.254 662.543
C 903.641 662.205 912.105 662.537 920.504 662.531
C 930.241 662.524 940.042 662.219 949.771 662.6
C 949.496 665.939 949.75 669.423 949.751 672.779
C 949.752 675.041 949.436 677.559 949.721 679.788
C 931.645 680.258 913.361 678.631 895.318 679.873
C 894.813 682.635 895.176 685.737 895.177 688.542
C 895.18 694.196 895.184 699.849 895.192 705.502
C 895.195 707.834 895.216 710.167 895.214 712.499
C 895.213 713.544 894.984 714.987 895.361 715.953
C 900.336 715.483 905.509 715.887 910.505 715.895
C 919.672 715.909 928.839 715.891 938.006 715.879
C 942.506 715.873 947.006 715.87 951.506 715.889
C 953.548 715.898 956.195 715.458 958.153 716.07
C 958.099 721.408 957.437 727.422 958.152 732.699
C 941.319 733.316 924.343 732.696 907.497 732.7
C 900.83 732.702 894.164 732.694 887.498 732.687
C 884.327 732.684 880.826 733.091 877.693 732.686
C 878.075 717.147 877.595 701.551 877.614 686.005
C 877.644 661.054 877.932 636.075 877.605 611.128 Z"
opacity="1" fill="rgb(15,61,93)" fill-rule="evenodd" />

</svg>